<?xml version="1.0" encoding="UTF-8"?>
<svg version="1.1" xmlns="http://www.w3.org/2000/svg" width="788" height="708">
<path d="M0 0 C1.58056471 1.33303744 3.1437168 2.68703388 4.6875 4.0625 C5.43386719 4.72636719 6.18023438 5.39023437 6.94921875 6.07421875 C18.02214151 16.52875838 25.49956091 29.28190922 31.6875 43.0625 C32.39519531 44.62871094 32.39519531 44.62871094 33.1171875 46.2265625 C50.24388177 87.39445495 50.79632965 150.73601104 36.6875 193.0625 C37.27378174 193.22685547 37.86006348 193.39121094 38.46411133 193.56054688 C79.02985617 205.28810331 118.11508028 226.92184649 148.6875 256.0625 C149.54085937 256.85140625 150.39421875 257.6403125 151.2734375 258.453125 C170.90892558 277.15948904 184.23538851 302.50402997 184.97045898 329.8581543 C185.34306949 360.81562078 172.37938855 386.66610736 151.11572266 408.60986328 C137.77773272 422.17585305 122.2496282 432.79644692 105.6875 442.0625 C104.90294434 442.50529297 104.11838867 442.94808594 103.31005859 443.40429688 C91.21868328 450.1600835 78.82537304 455.87300621 66 461.0625 C65.32526642 461.3359021 64.65053284 461.6093042 63.95535278 461.89099121 C41.20999712 471.0625 41.20999712 471.0625 36.6875 471.0625 C36.79296143 471.60737061 36.89842285 472.15224121 37.00708008 472.71362305 C44.1440377 510.1565114 47.83817617 550.2966948 40.6875 588.0625 C40.51057617 589.00561035 40.33365234 589.9487207 40.15136719 590.92041016 C35.82801141 613.18307898 28.27495315 635.33232804 13.6875 653.0625 C12.87667969 654.04863281 12.06585937 655.03476562 11.23046875 656.05078125 C-3.90786864 673.78974228 -25.15419933 684.51868666 -48.3125 687.0625 C-81.93812551 688.73037289 -111.73194772 679.67046663 -141.3125 664.0625 C-142.03872559 663.68077637 -142.76495117 663.29905273 -143.51318359 662.90576172 C-163.88428182 652.11637875 -182.50866802 638.57688325 -200.17578125 623.8046875 C-202.39591423 621.9376405 -202.39591423 621.9376405 -205.3125 620.0625 C-206.0653125 620.71734375 -206.818125 621.3721875 -207.59375 622.046875 C-249.78641533 658.43568681 -304.42010216 690.15583272 -361.94165039 686.79101562 C-389.89421672 684.6152483 -414.00095456 672.92783856 -432.37890625 651.5546875 C-455.04817894 622.33651381 -460.53547179 585.03555635 -460.5625 549.125 C-460.56350708 548.19620026 -460.56451416 547.26740051 -460.56555176 546.31045532 C-460.54861864 523.13274832 -458.14883005 500.74660644 -453.3125 478.0625 C-455.19195312 477.70671875 -455.19195312 477.70671875 -457.109375 477.34375 C-462.87277552 476.05699547 -468.14406465 473.87540314 -473.5625 471.5625 C-475.12979858 470.89927734 -475.12979858 470.89927734 -476.72875977 470.22265625 C-507.50708458 457.07617069 -535.78763472 441.09575395 -560.3125 418.0625 C-561.1176001 417.30839844 -561.1176001 417.30839844 -561.93896484 416.5390625 C-584.75369183 394.99361008 -601.80437991 367.53438682 -602.78515625 335.46459961 C-603.08259466 303.21643369 -587.56052001 278.32978489 -565.84448242 255.57983398 C-535.44736811 225.47336937 -494.17443714 205.98329569 -454.3125 192.0625 C-454.58513672 190.25845703 -454.58513672 190.25845703 -454.86328125 188.41796875 C-455.5690056 183.68190044 -456.22773101 178.94004686 -456.87597656 174.19580078 C-457.15578576 172.1873717 -457.44587695 170.18033232 -457.74902344 168.17529297 C-460.14599778 152.21992293 -460.62970898 136.41852338 -460.6875 120.3125 C-460.69526459 119.33251038 -460.70302917 118.35252075 -460.71102905 117.34283447 C-460.8269678 98.78292411 -459.55654095 80.08566243 -454.5625 62.125 C-454.30791016 61.18172852 -454.05332031 60.23845703 -453.79101562 59.26660156 C-451.4133884 50.80098213 -448.22537304 42.92398008 -444.3125 35.0625 C-443.83039063 34.0725 -443.34828125 33.0825 -442.8515625 32.0625 C-430.95075898 8.91839592 -411.72125105 -6.79012696 -387.3125 -14.9375 C-386.65040527 -15.16195801 -385.98831055 -15.38641602 -385.30615234 -15.61767578 C-364.48178715 -22.30260997 -339.14784173 -20.72932524 -318.3125 -14.9375 C-317.28527832 -14.66462158 -317.28527832 -14.66462158 -316.23730469 -14.38623047 C-279.75296538 -4.54864597 -247.71497737 16.71734112 -218.91674805 40.54711914 C-215.17339482 43.6291325 -211.3986853 46.45012457 -207.3125 49.0625 C-206.71566406 48.56363281 -206.11882812 48.06476563 -205.50390625 47.55078125 C-184.26322878 29.97120123 -161.90061282 13.66853224 -137.3125 1.0625 C-136.57821777 0.6804541 -135.84393555 0.2984082 -135.08740234 -0.09521484 C-92.64143722 -21.97297335 -40.28834045 -31.30765775 0 0 Z " fill="#54C1DE" transform="translate(603.3125,20.9375)"/>
<path d="M0 0 C1.58056471 1.33303744 3.1437168 2.68703388 4.6875 4.0625 C5.43386719 4.72636719 6.18023438 5.39023437 6.94921875 6.07421875 C18.02214151 16.52875838 25.49956091 29.28190922 31.6875 43.0625 C32.39519531 44.62871094 32.39519531 44.62871094 33.1171875 46.2265625 C50.24388177 87.39445495 50.79632965 150.73601104 36.6875 193.0625 C37.27378174 193.22685547 37.86006348 193.39121094 38.46411133 193.56054688 C79.02985617 205.28810331 118.11508028 226.92184649 148.6875 256.0625 C149.54085937 256.85140625 150.39421875 257.6403125 151.2734375 258.453125 C170.90892558 277.15948904 184.23538851 302.50402997 184.97045898 329.8581543 C185.34306949 360.81562078 172.37938855 386.66610736 151.11572266 408.60986328 C137.77773272 422.17585305 122.2496282 432.79644692 105.6875 442.0625 C104.90294434 442.50529297 104.11838867 442.94808594 103.31005859 443.40429688 C91.21868328 450.1600835 78.82537304 455.87300621 66 461.0625 C65.32526642 461.3359021 64.65053284 461.6093042 63.95535278 461.89099121 C41.20999712 471.0625 41.20999712 471.0625 36.6875 471.0625 C36.79296143 471.60737061 36.89842285 472.15224121 37.00708008 472.71362305 C44.1440377 510.1565114 47.83817617 550.2966948 40.6875 588.0625 C40.51057617 589.00561035 40.33365234 589.9487207 40.15136719 590.92041016 C35.82801141 613.18307898 28.27495315 635.33232804 13.6875 653.0625 C12.87667969 654.04863281 12.06585937 655.03476562 11.23046875 656.05078125 C-3.90786864 673.78974228 -25.15419933 684.51868666 -48.3125 687.0625 C-81.93812551 688.73037289 -111.73194772 679.67046663 -141.3125 664.0625 C-142.03872559 663.68077637 -142.76495117 663.29905273 -143.51318359 662.90576172 C-163.88428182 652.11637875 -182.50866802 638.57688325 -200.17578125 623.8046875 C-202.39591423 621.9376405 -202.39591423 621.9376405 -205.3125 620.0625 C-206.0653125 620.71734375 -206.818125 621.3721875 -207.59375 622.046875 C-249.78641533 658.43568681 -304.42010216 690.15583272 -361.94165039 686.79101562 C-389.89421672 684.6152483 -414.00095456 672.92783856 -432.37890625 651.5546875 C-455.04817894 622.33651381 -460.53547179 585.03555635 -460.5625 549.125 C-460.56350708 548.19620026 -460.56451416 547.26740051 -460.56555176 546.31045532 C-460.54861864 523.13274832 -458.14883005 500.74660644 -453.3125 478.0625 C-455.19195312 477.70671875 -455.19195312 477.70671875 -457.109375 477.34375 C-462.87277552 476.05699547 -468.14406465 473.87540314 -473.5625 471.5625 C-475.12979858 470.89927734 -475.12979858 470.89927734 -476.72875977 470.22265625 C-507.50708458 457.07617069 -535.78763472 441.09575395 -560.3125 418.0625 C-561.1176001 417.30839844 -561.1176001 417.30839844 -561.93896484 416.5390625 C-584.75369183 394.99361008 -601.80437991 367.53438682 -602.78515625 335.46459961 C-603.08259466 303.21643369 -587.56052001 278.32978489 -565.84448242 255.57983398 C-535.44736811 225.47336937 -494.17443714 205.98329569 -454.3125 192.0625 C-454.58513672 190.25845703 -454.58513672 190.25845703 -454.86328125 188.41796875 C-455.5690056 183.68190044 -456.22773101 178.94004686 -456.87597656 174.19580078 C-457.15578576 172.1873717 -457.44587695 170.18033232 -457.74902344 168.17529297 C-460.14599778 152.21992293 -460.62970898 136.41852338 -460.6875 120.3125 C-460.69526459 119.33251038 -460.70302917 118.35252075 -460.71102905 117.34283447 C-460.8269678 98.78292411 -459.55654095 80.08566243 -454.5625 62.125 C-454.30791016 61.18172852 -454.05332031 60.23845703 -453.79101562 59.26660156 C-451.4133884 50.80098213 -448.22537304 42.92398008 -444.3125 35.0625 C-443.83039063 34.0725 -443.34828125 33.0825 -442.8515625 32.0625 C-430.95075898 8.91839592 -411.72125105 -6.79012696 -387.3125 -14.9375 C-386.65040527 -15.16195801 -385.98831055 -15.38641602 -385.30615234 -15.61767578 C-364.48178715 -22.30260997 -339.14784173 -20.72932524 -318.3125 -14.9375 C-317.28527832 -14.66462158 -317.28527832 -14.66462158 -316.23730469 -14.38623047 C-279.75296538 -4.54864597 -247.71497737 16.71734112 -218.91674805 40.54711914 C-215.17339482 43.6291325 -211.3986853 46.45012457 -207.3125 49.0625 C-206.71566406 48.56363281 -206.11882812 48.06476563 -205.50390625 47.55078125 C-184.26322878 29.97120123 -161.90061282 13.66853224 -137.3125 1.0625 C-136.57821777 0.6804541 -135.84393555 0.2984082 -135.08740234 -0.09521484 C-92.64143722 -21.97297335 -40.28834045 -31.30765775 0 0 Z M-193.95703125 86.921875 C-196.18447672 88.94615381 -198.4278172 90.94931328 -200.6875 92.9375 C-201.29335938 93.47117187 -201.89921875 94.00484375 -202.5234375 94.5546875 C-204.40005271 96.13628896 -206.3359765 97.60840562 -208.3125 99.0625 C-208.98732422 98.35287109 -208.98732422 98.35287109 -209.67578125 97.62890625 C-214.30522036 92.86958308 -219.17258314 88.61512173 -224.3515625 84.46484375 C-226.8791022 82.41413541 -229.34641733 80.31091901 -231.80102539 78.17407227 C-256.09559906 57.15796596 -284.30754387 39.9764234 -314.75 29.625 C-315.72074463 29.29443604 -316.69148926 28.96387207 -317.69165039 28.62329102 C-337.89504177 22.05628557 -362.56853141 20.48880973 -382 30.125 C-400.40084363 40.85696226 -411.11786882 58.95331527 -416.78515625 79.078125 C-426.91501482 117.69169308 -423.21822692 158.78722344 -414.89257812 197.34228516 C-414.06595916 201.21862714 -413.31418763 205.10857094 -412.5625 209 C-411.81515973 213.16360493 -411.81515973 213.16360493 -410.3125 217.0625 C-411.35019531 217.1346875 -412.38789063 217.206875 -413.45703125 217.28125 C-419.8980235 218.09538464 -425.90224532 220.41962598 -432 222.5625 C-432.95717422 222.89613556 -432.95717422 222.89613556 -433.9336853 223.23651123 C-451.28290865 229.29472954 -468.06821927 236.4640485 -484.3125 245.0625 C-484.95993164 245.40216797 -485.60736328 245.74183594 -486.27441406 246.09179688 C-502.14160067 254.4824214 -516.46649418 264.51351166 -529.3125 277.0625 C-530.18390625 277.87203125 -531.0553125 278.6815625 -531.953125 279.515625 C-546.14068118 293.0068594 -556.74115728 310.90688206 -557.76611328 330.78808594 C-558.24666959 351.76057514 -547.23809095 370.21597818 -533.3125 385.0625 C-532.83264648 385.57941406 -532.35279297 386.09632813 -531.85839844 386.62890625 C-504.53514582 415.79807761 -466.14324395 433.45693034 -428.9375 446.25 C-428.22742798 446.49459961 -427.51735596 446.73919922 -426.7857666 446.99121094 C-419.21053138 449.89107486 -419.21053138 449.89107486 -411.3125 451.0625 C-411.5391333 452.07111084 -411.7657666 453.07972168 -411.99926758 454.11889648 C-423.19270653 504.34243939 -433.07121776 565.52791625 -405.93359375 612.54296875 C-396.34990097 627.43810571 -383.70228046 637.90932309 -366.25 642 C-325.76597416 648.71934039 -285.13837403 629.09587617 -252.80810547 606.29638672 C-248.46180821 603.11553705 -244.21752448 599.81619845 -240.02246094 596.43896484 C-238.5384492 595.24438201 -237.03998919 594.06779085 -235.5390625 592.89453125 C-230.61301006 589.02861631 -225.82970968 584.99638162 -221.0625 580.9375 C-220.48346924 580.44628662 -219.90443848 579.95507324 -219.30786133 579.44897461 C-216.4096408 576.96317874 -213.72663027 574.44432262 -211.140625 571.6328125 C-210.20734375 570.78460937 -209.2740625 569.93640625 -208.3125 569.0625 C-204.22546648 569.49590655 -202.49964533 571.62712904 -199.75 574.5625 C-195.51541573 578.92036184 -191.14150253 582.81943932 -186.390625 586.6015625 C-184.16322837 588.38234914 -181.97310432 590.18246513 -179.796875 592.0234375 C-144.86778459 621.3737952 -102.21910296 646.20329972 -55.3125 643.0625 C-38.32639221 640.84221173 -25.19866963 631.70146204 -14.6875 618.5625 C10.30366326 583.88449647 9.80325425 535.68639549 4.6875 495.0625 C4.55327637 493.98033203 4.41905273 492.89816406 4.28076172 491.78320312 C2.42306967 477.22613893 -0.1301491 463.13508232 -4.3125 449.0625 C-2.95125 448.93681641 -2.95125 448.93681641 -1.5625 448.80859375 C4.06522072 447.99516819 9.34001392 445.99705411 14.6875 444.125 C15.83234863 443.72531006 16.97719727 443.32562012 18.15673828 442.91381836 C59.90538738 428.07683123 113.00755376 403.90352627 133.87109375 361.85546875 C140.8752606 346.70663664 143.71250308 330.37488648 138.625 314.125 C127.81981245 285.94676581 103.17380771 265.71830343 77.6875 251.0625 C76.9980127 250.65708984 76.30852539 250.25167969 75.59814453 249.83398438 C56.33493057 238.54939386 35.86273744 230.39613797 14.875 222.9375 C14.19915863 222.69717041 13.52331726 222.45684082 12.82699585 222.20922852 C4.39404709 219.15344522 4.39404709 219.15344522 -4.3125 217.0625 C-3.34147199 211.02406695 -2.32318362 205.00259088 -1.12890625 199.00390625 C8.11424501 152.38674977 14.74980094 92.20979913 -13.203125 50.22265625 C-14.83731394 48.08755287 -16.52762852 46.07198452 -18.3125 44.0625 C-19.08464844 43.08796875 -19.85679687 42.1134375 -20.65234375 41.109375 C-29.58729457 30.400512 -43.74583451 24.72916652 -57.3125 23.0625 C-109.49538631 20.13668237 -156.91638603 53.23785423 -193.95703125 86.921875 Z " fill="#FEFEFE" transform="translate(603.3125,20.9375)"/>
<path d="M0 0 C3.27546463 0.00907555 6.55070752 0.00916443 9.82617188 0 C20.0930596 -0.02843655 30.35390344 0.03456661 40.61917877 0.22299194 C42.85772963 0.26054666 45.09615921 0.28562249 47.3348999 0.30883789 C51.49439519 0.35870715 55.64598482 0.49866058 59.80297852 0.65136719 C61.64207542 0.66704742 61.64207542 0.66704742 63.51832581 0.68304443 C71.65201857 1.09088583 71.65201857 1.09088583 75.11636353 4.42002869 C76.91950042 6.96228767 78.40879719 9.51026127 79.86938477 12.26074219 C80.92886458 13.90619075 82.00006956 15.54421084 83.08813477 17.17089844 C96.86577136 38.70602517 109.89548554 60.61783477 122.06471252 83.09779358 C124.13463834 86.92059302 126.23837793 90.72294198 128.35766602 94.51855469 C129.38351854 96.39034099 130.4083304 98.26269819 131.43188477 100.13574219 C131.90335938 100.96686523 132.37483398 101.79798828 132.8605957 102.65429688 C134.73650914 106.14352488 135.84160971 108.58620514 136.00610352 112.58105469 C134.29683366 118.11415503 131.76249187 123.11896627 129.11938477 128.26074219 C128.53447266 129.4121167 127.94956055 130.56349121 127.34692383 131.74975586 C121.52280027 143.11460394 115.28112852 154.21877741 108.86938477 165.26074219 C107.87172542 166.99260757 106.87407376 168.72447741 105.87670898 170.45651245 C96.33466737 187.00675904 86.53589804 203.40305713 75.86938477 219.26074219 C75.49515381 220.00525635 75.12092285 220.74977051 74.73535156 221.5168457 C71.63773587 224.41181743 67.85199353 223.94264025 63.81860352 224.00292969 C62.83027023 224.03144012 61.84193695 224.05995056 60.82365417 224.08932495 C57.17234704 224.17848951 53.52151673 224.22601911 49.86938477 224.26074219 C49.13780403 224.26803848 48.4062233 224.27533478 47.65247345 224.28285217 C35.27384641 224.39970637 22.895716 224.40265909 10.5166626 224.38769531 C6.73678354 224.38509103 2.95692829 224.38990807 -0.8229475 224.39468575 C-4.53042509 224.39834271 -8.23788978 224.39712974 -11.94536781 224.39455795 C-13.68443115 224.39390344 -15.42349576 224.39466365 -17.1625576 224.39703751 C-21.99387908 224.40219209 -26.82249991 224.37006433 -31.65319443 224.29105377 C-33.37647523 224.26996919 -35.09996302 224.26301351 -36.82336807 224.2670517 C-39.54211087 224.27087899 -42.25732642 224.23042901 -44.97558594 224.18212891 C-45.8039178 224.19263338 -46.63224966 224.20313786 -47.48568249 224.21396065 C-50.95223721 224.11487219 -53.23648213 223.99023688 -55.98035049 221.75160217 C-58.64470596 218.74586983 -60.843612 215.56366279 -62.63842773 211.96386719 C-64.72026722 207.97298255 -67.03013881 204.22506447 -69.49243164 200.45922852 C-83.53090886 178.90321243 -96.03795987 156.3277749 -107.84570312 133.48950195 C-108.31613037 132.57998779 -108.78655762 131.67047363 -109.27124023 130.73339844 C-109.73208008 129.83637207 -110.19291992 128.9393457 -110.66772461 128.01513672 C-111.69127956 126.08794264 -112.75912999 124.18392242 -113.85913086 122.29931641 C-114.41793945 121.33654785 -114.97674805 120.3737793 -115.55249023 119.38183594 C-116.06908203 118.51872803 -116.58567383 117.65562012 -117.11791992 116.76635742 C-118.36203825 113.68815434 -118.14681406 112.39169209 -117.13061523 109.26074219 C-116.3594437 107.44640206 -115.52528401 105.65815597 -114.64624023 103.89355469 C-114.13005127 102.85505371 -113.6138623 101.81655273 -113.08203125 100.74658203 C-112.52056396 99.63750488 -111.95909668 98.52842773 -111.38061523 97.38574219 C-110.79787842 96.22896973 -110.2151416 95.07219727 -109.61474609 93.88037109 C-104.32909256 83.45060812 -98.66288569 73.25368764 -92.79858398 63.13916016 C-91.08745313 60.18625724 -89.38987053 57.22583113 -87.69311523 54.26464844 C-80.83344172 42.34487455 -73.76243731 30.59149898 -66.19702148 19.10449219 C-64.31970836 16.22955956 -62.66734477 13.43307654 -61.28295898 10.29199219 C-59.52859966 6.67120145 -58.25923691 4.79866819 -55.13061523 2.26074219 C-52.00855881 1.35030598 -48.89873358 1.17174231 -45.66186523 0.97949219 C-44.67017838 0.90780823 -43.67849152 0.83612427 -42.65675354 0.76226807 C-28.4617147 -0.13517341 -14.21697386 -0.03945392 0 0 Z " fill="#FEFEFE" transform="translate(386.130615234375,241.7392578125)"/>
<path d="M0 0 C1.06810618 2.49339873 1.93561741 4.8837479 2.75 7.4609375 C3.13161285 8.61440926 3.13161285 8.61440926 3.52093506 9.79118347 C4.0696627 11.45025479 4.61356793 13.11092715 5.15319824 14.77297974 C6.57659851 19.14674998 8.04359307 23.50567529 9.515625 27.86328125 C9.80987366 28.73474289 10.10412231 29.60620453 10.4072876 30.5040741 C15.11648316 44.3377223 20.78976238 57.79363009 26.71875 71.14453125 C27.14575195 72.11382568 27.57275391 73.08312012 28.01269531 74.08178711 C28.81110195 75.88418851 29.62208022 77.681098 30.44824219 79.47094727 C30.80047852 80.26170654 31.15271484 81.05246582 31.515625 81.8671875 C31.82790039 82.54894043 32.14017578 83.23069336 32.46191406 83.93310547 C33.57475988 88.2077664 31.73845621 91.90828888 29.953125 95.76171875 C29.52692871 96.69814209 29.10073242 97.63456543 28.66162109 98.59936523 C28.19578613 99.61844971 27.72995117 100.63753418 27.25 101.6875 C16.409361 125.88361903 7.43111324 150.87601309 -1 176 C-8.07600912 175.43868197 -14.31959322 173.4661592 -21 171.125 C-22.1341333 170.72933838 -23.2682666 170.33367676 -24.43676758 169.92602539 C-36.30600235 165.68424948 -47.69263718 160.55155178 -59 155 C-59.72751465 154.64583008 -60.4550293 154.29166016 -61.20458984 153.92675781 C-76.166942 146.56462125 -90.59315276 137.15265584 -103 126 C-104.38251953 124.75863281 -104.38251953 124.75863281 -105.79296875 123.4921875 C-116.41516349 113.44139358 -125.70160206 101.24022207 -126.5 86.1875 C-126.14876797 74.67001627 -120.33077896 66.40926334 -113 58 C-112.32710937 57.14535156 -111.65421875 56.29070312 -110.9609375 55.41015625 C-87.88415049 27.04685429 -44.67349737 12.2436611 -11.1875 1.375 C-10.39923828 1.11501221 -9.61097656 0.85502441 -8.79882812 0.5871582 C-3.36100158 -1.12033386 -3.36100158 -1.12033386 0 0 Z " fill="#FEFEFE" transform="translate(202,267)"/>
<path d="M0 0 C6.34712403 0.62451622 12.50207507 1.61254007 18.75 2.875 C28.69040097 4.82545539 38.65587292 6.34351744 48.69433594 7.68847656 C50.67529877 7.95612889 52.6542823 8.23835896 54.6328125 8.5234375 C55.74398437 8.68070312 56.85515625 8.83796875 58 9 C59.16402344 9.17660156 60.32804687 9.35320312 61.52734375 9.53515625 C65.31574561 10.01794704 69.06198794 10.06733434 72.87890625 10.12109375 C93.61879912 10.76813145 93.61879912 10.76813145 99.59765625 16.9296875 C102.70972472 20.88764006 105.20791964 25.15293023 107.61181641 29.56884766 C109.66795751 33.16980669 112.18625691 36.30354397 114.8125 39.5 C115.70547177 40.62286791 116.59743198 41.74654117 117.48828125 42.87109375 C127.03656136 54.78731818 136.78096669 66.52970391 147.05078125 77.83203125 C149.44541643 80.49540304 151.73624125 83.22506992 154 86 C150.02848427 94.95072947 140.44659604 101.07744823 133 107 C131.47632813 108.24910156 131.47632813 108.24910156 129.921875 109.5234375 C100.42582458 133.50566679 63.75206815 156.35140393 24.38769531 154.26513672 C17.03332914 153.44848624 11.17725838 149.59093845 6.125 144.375 C2.21722447 139.37380795 -0.4864261 133.80167929 -3 128 C-3.3815625 127.12085938 -3.763125 126.24171875 -4.15625 125.3359375 C-18.63539486 87.273337 -9.65207394 37.84425385 0 0 Z " fill="#FEFEFE" transform="translate(221,480)"/>
<path d="M0 0 C5.84240169 26.26743801 5.84240169 26.26743801 7 35 C7.18433594 36.23878906 7.36867188 37.47757813 7.55859375 38.75390625 C12.00473888 72.12450696 13.60609953 114.72454585 -6.1484375 143.66015625 C-12.04928534 151.11713485 -18.57958401 155.42307447 -28 157 C-66.59685245 160.1142963 -104.76289121 132.06259682 -132.75 108.4375 C-134.84787927 106.64127019 -136.92755976 104.82549209 -139 103 C-139.55800293 102.51047852 -140.11600586 102.02095703 -140.69091797 101.51660156 C-151.3739145 92.09849621 -151.3739145 92.09849621 -153 88 C-152.63390625 87.58492187 -152.2678125 87.16984375 -151.890625 86.7421875 C-149.92073956 84.50027026 -147.95961202 82.2509057 -146 80 C-145.56042969 79.49597656 -145.12085938 78.99195313 -144.66796875 78.47265625 C-137.16531244 69.85390231 -129.96994005 61.05367059 -123 52 C-122.38576172 51.2064209 -121.77152344 50.4128418 -121.13867188 49.59521484 C-113.10694964 39.21011163 -105.26868327 28.75539251 -97.94140625 17.859375 C-96 15 -96 15 -95 14 C-93.08756305 13.75849317 -91.16737737 13.57811156 -89.24609375 13.421875 C-88.01528076 13.31568848 -86.78446777 13.20950195 -85.51635742 13.10009766 C-84.85316498 13.04364075 -84.18997253 12.98718384 -83.50668335 12.92901611 C-56.14278634 10.5616191 -26.87162742 0 0 0 Z " fill="#FEFEFE" transform="translate(571,478)"/>
<path d="M0 0 C16.00579569 9.99955083 31.04387802 21.27240536 45.08691406 33.87402344 C45.63444336 34.36515625 46.18197266 34.85628906 46.74609375 35.36230469 C49.8778628 38.17996753 52.99037412 41.01762333 56.08691406 43.87402344 C54.87413266 47.33074336 53.74049987 49.5461989 51.02441406 51.99902344 C47.08376958 55.75980448 43.74422121 59.88836093 40.33300781 64.12792969 C38.35326469 66.54838084 36.31662524 68.87521485 34.21191406 71.18652344 C28.84796872 77.15710545 23.99277205 83.52732073 19.08691406 89.87402344 C18.25228058 90.94954577 17.41764523 92.02506666 16.58300781 93.10058594 C15.37837891 94.6590625 15.37837891 94.6590625 14.14941406 96.24902344 C13.72869629 96.76682373 13.30797852 97.28462402 12.87451172 97.81811523 C10.49663156 100.79430948 8.64095634 103.66571001 6.98925781 107.10449219 C4.42320155 111.98778166 1.8741368 115.94875729 -2.91308594 118.87402344 C-12.49105102 121.7500064 -22.68622279 121.97944991 -32.61376953 122.57617188 C-38.7190105 122.96504936 -44.74401732 123.82176991 -50.78808594 124.74902344 C-51.85502686 124.9062085 -52.92196777 125.06339355 -54.02124023 125.2253418 C-63.73981697 126.71616399 -73.32283515 128.78792543 -82.89306641 131.03173828 C-84.00053223 131.2852002 -85.10799805 131.53866211 -86.24902344 131.79980469 C-87.22403809 132.03094971 -88.19905273 132.26209473 -89.20361328 132.50024414 C-92.06633863 132.89516507 -94.13563523 132.60804141 -96.91308594 131.87402344 C-99.51510649 119.28152892 -102.02936761 106.68032858 -104.16308594 93.99902344 C-104.32583008 93.04511719 -104.48857422 92.09121094 -104.65625 91.10839844 C-106.58693694 79.4013031 -107.09957982 67.90243253 -107.09838867 56.06005859 C-107.10056936 53.64239728 -107.11877341 51.22519794 -107.13769531 48.80761719 C-107.21586184 27.44169065 -105.03415772 1.61789159 -89.50683594 -14.73535156 C-64.48254391 -36.57027303 -23.67467528 -14.47057123 0 0 Z " fill="#FEFEFE" transform="translate(317.9130859375,97.1259765625)"/>
<path d="M0 0 C2.54698887 2.0043695 4.70898948 3.92019924 6.796875 6.4140625 C7.27640625 6.97738281 7.7559375 7.54070312 8.25 8.12109375 C27.94691484 32.54327856 25.91354721 73.80014625 23.171875 103.2890625 C22.17781562 112.51530189 20.43817415 121.66027764 18.796875 130.7890625 C18.66545105 131.52010193 18.5340271 132.25114136 18.39862061 133.0043335 C18.01682374 135.10827542 17.62734713 137.2106193 17.234375 139.3125 C17.00621094 140.53630371 16.77804687 141.76010742 16.54296875 143.02099609 C15.83221521 146.2533432 14.90619307 149.29856889 13.796875 152.4140625 C8.33248627 152.04893053 3.07627686 151.31653153 -2.265625 150.1015625 C-12.11808239 147.89772335 -22.09856444 146.42835372 -32.07470703 144.90185547 C-34.15619725 144.57730283 -36.2354164 144.23782554 -38.31201172 143.88330078 C-44.21925118 142.89921604 -50.03601835 142.26646909 -56.015625 141.9765625 C-78.81987804 140.68474313 -78.81987804 140.68474313 -84.8203125 134.60546875 C-87.70363572 130.89586414 -89.91415114 126.88628242 -92.00439453 122.68798828 C-93.7983944 119.28486918 -96.10030273 116.39267227 -98.515625 113.4140625 C-99.31484375 112.38539063 -100.1140625 111.35671875 -100.9375 110.296875 C-104.3308958 105.97907138 -107.74678142 101.68165832 -111.203125 97.4140625 C-112.22986328 96.14175781 -112.22986328 96.14175781 -113.27734375 94.84375 C-118.97128755 87.83110108 -124.83037612 80.96798509 -130.72802734 74.12695312 C-133.22513698 71.22729718 -135.71396873 68.32054592 -138.203125 65.4140625 C-136.92008048 62.57197191 -135.62194179 60.60663221 -133.33203125 58.49609375 C-132.76371582 57.96878662 -132.19540039 57.44147949 -131.60986328 56.89819336 C-131.00126465 56.34655518 -130.39266602 55.79491699 -129.765625 55.2265625 C-129.13382324 54.64849854 -128.50202148 54.07043457 -127.85107422 53.47485352 C-122.46254402 48.57971614 -116.94704519 43.88915376 -111.203125 39.4140625 C-110.62369141 38.96208496 -110.04425781 38.51010742 -109.44726562 38.04443359 C-89.2673902 22.38673233 -66.80240443 7.05525557 -42.203125 -0.5859375 C-41.23632812 -0.90046875 -40.26953125 -1.215 -39.2734375 -1.5390625 C-27.55217362 -4.81982338 -10.74189708 -6.81843822 0 0 Z " fill="#FEFEFE" transform="translate(555.203125,77.5859375)"/>
<path d="M0 0 C4.8430169 0.57954577 9.21754272 1.5689803 13.83984375 3.1171875 C14.47513504 3.3298526 15.11042633 3.5425177 15.76496887 3.7616272 C17.82578856 4.45678277 19.88209456 5.16400395 21.9375 5.875 C22.64563843 6.11887451 23.35377686 6.36274902 24.08337402 6.61401367 C55.34017675 17.43685528 84.99909623 31.96774257 109 55 C109.66644531 55.58007812 110.33289063 56.16015625 111.01953125 56.7578125 C117.5648983 62.63830028 124.53561264 73.14567406 125.23828125 82.00390625 C125.40441268 89.96947122 124.79976 95.96930634 121 103 C120.54882812 103.85851562 120.09765625 104.71703125 119.6328125 105.6015625 C108.78439381 124.32992711 89.42271664 136.63945766 71 147 C69.97326172 147.58515381 69.97326172 147.58515381 68.92578125 148.18212891 C51.33674317 158.1260227 32.51936966 165.46141678 13.5 172.1875 C12.26358765 172.62485474 12.26358765 172.62485474 11.00219727 173.07104492 C7.89094427 174.13984166 5.31338084 175 2 175 C1.67427002 174.07179443 1.34854004 173.14358887 1.01293945 172.18725586 C-4.86836049 155.47288699 -10.85298229 138.82635097 -17.75 122.5 C-18.15310898 121.54432129 -18.15310898 121.54432129 -18.56436157 120.56933594 C-21.2262042 114.27944453 -23.96122667 108.02864622 -26.8515625 101.83984375 C-27.49593262 100.45345703 -27.49593262 100.45345703 -28.15332031 99.0390625 C-28.93642965 97.37143397 -29.73402919 95.71048827 -30.54980469 94.05859375 C-30.89172852 93.33671875 -31.23365234 92.61484375 -31.5859375 91.87109375 C-32.03525635 90.95734985 -32.03525635 90.95734985 -32.49365234 90.02514648 C-33.69283649 85.22898809 -31.67303698 80.82812421 -29.6640625 76.52734375 C-29.18235596 75.47796631 -28.70064941 74.42858887 -28.2043457 73.34741211 C-27.42256958 71.65950562 -27.42256958 71.65950562 -26.625 69.9375 C-16.30632173 47.1757552 -8.00229388 23.65908619 0 0 Z " fill="#FEFEFE" transform="translate(589,267)"/>
<path d="M0 0 C3.64640909 2.74658463 6.84896401 5.70353158 10 9 C10.5465625 9.515625 11.093125 10.03125 11.65625 10.5625 C23.00160126 22.14924171 26.41012086 38.3484126 26.36572266 53.86791992 C26.23211671 61.93637067 25.38814574 68.59041026 22 76 C21.57589844 76.94617188 21.15179688 77.89234375 20.71484375 78.8671875 C17.21158836 85.91273177 12.52485206 91.44657112 7 97 C6.39671875 97.63808594 5.7934375 98.27617187 5.171875 98.93359375 C-5.96523223 109.80437885 -22.83918912 114.54170656 -38.01904297 114.49243164 C-54.56748932 113.93828483 -69.56934959 106.41020152 -81.26953125 94.921875 C-93.87129993 81.43672053 -98.75135963 64.49261793 -98.375 46.44921875 C-97.54955787 29.59545922 -88.99822678 15.52539026 -77 4 C-54.37272588 -14.81327654 -24.51488962 -15.49047113 0 0 Z " fill="#53C1DE" transform="translate(431,302)"/>
<path d="M0 0 C3.18473343 2.63815716 4.32037551 5.69955385 5.85546875 9.484375 C6.11848785 10.12883072 6.38150696 10.77328644 6.65249634 11.43727112 C7.50620555 13.53811341 8.34756255 15.6436174 9.1875 17.75 C9.47491058 18.46409027 9.76232117 19.17818054 10.05844116 19.91390991 C13.83953675 29.31032964 17.47321856 38.7484855 20.8125 48.3125 C21.14338623 49.25899414 21.47427246 50.20548828 21.81518555 51.18066406 C24 57.59934151 24 57.59934151 24 61 C10.55366206 63.78230945 -2.91664479 66.41654219 -16.4375 68.8125 C-17.63785889 69.03123779 -18.83821777 69.24997559 -20.07495117 69.4753418 C-26.79157101 70.64506639 -33.1818542 71.30651005 -40 71 C-38.25807382 65.91767421 -35.41574751 61.55439396 -32.625 57 C-23.27577919 41.56982414 -14.40518357 25.8919633 -5.83203125 10.01806641 C-5.35894531 9.14327637 -4.88585937 8.26848633 -4.3984375 7.3671875 C-3.98255371 6.59487793 -3.56666992 5.82256836 -3.13818359 5.02685547 C-2.17099561 3.30450569 -1.09571773 1.64357659 0 0 Z " fill="#FCFEFE" transform="translate(538,389)"/>
<path d="M0 0 C2.32130837 2.13011253 3.74006641 4.12125102 5.13671875 6.9375 C5.74277954 8.13560303 5.74277954 8.13560303 6.36108398 9.35791016 C7.01765991 10.66574463 7.01765991 10.66574463 7.6875 12 C12.15822152 20.711822 16.93090891 29.21040887 21.9375 37.625 C22.27631195 38.19458435 22.6151239 38.7641687 22.96420288 39.35101318 C28.02036787 47.8312051 33.20595933 56.22582074 38.54663086 64.52978516 C42 69.90654209 42 69.90654209 42 71 C32.94341323 70.40293474 23.98775114 69.44514053 15 68.1875 C13.75065674 68.01444336 12.50131348 67.84138672 11.21411133 67.66308594 C0.4020568 66.12887302 -10.30483922 64.19747566 -21 62 C-22.2032511 57.76924511 -21.73246722 55.23912676 -20.296875 51.1171875 C-19.89847412 49.96186523 -19.50007324 48.80654297 -19.08959961 47.61621094 C-18.64753174 46.38161133 -18.20546387 45.14701172 -17.75 43.875 C-17.29868651 42.59154975 -16.84759904 41.30801999 -16.39672852 40.02441406 C-3.42685489 3.42685489 -3.42685489 3.42685489 0 0 Z " fill="#FCFDFE" transform="translate(252,390)"/>
<path d="M0 0 C26.73 0 53.46 0 81 0 C79.46749727 3.83125684 78.70119813 5.68287221 76.2421875 8.63671875 C75.70327881 9.2910791 75.16437012 9.94543945 74.60913086 10.61962891 C74.03686768 11.30202637 73.46460449 11.98442383 72.875 12.6875 C71.68586651 14.1260282 70.49706319 15.56482939 69.30859375 17.00390625 C68.44790283 18.0405542 68.44790283 18.0405542 67.56982422 19.09814453 C65.65827792 21.41399922 63.79459948 23.76534505 61.9375 26.125 C58.64130988 30.2557574 55.24293481 34.29320083 51.8125 38.3125 C51.31290771 38.8998291 50.81331543 39.4871582 50.29858398 40.09228516 C47.33143608 43.5489359 44.26289759 46.8206135 41 50 C34.25799606 42.86202056 27.59322822 35.72777982 21.45703125 28.0546875 C19.49903252 25.62041881 17.51691338 23.21539119 15.51171875 20.8203125 C14.89159912 20.07692627 14.27147949 19.33354004 13.63256836 18.56762695 C12.41154504 17.10496421 11.18728734 15.64499313 9.95922852 14.18823242 C9.39002686 13.50349854 8.8208252 12.81876465 8.234375 12.11328125 C7.73131836 11.51298096 7.22826172 10.91268066 6.70996094 10.29418945 C4.26216588 7.01007607 2.17086824 3.47338919 0 0 Z " fill="#FDFEFE" transform="translate(355,496)"/>
<path d="M0 0 C9.67084895 0.57356402 19.15535677 2.25600201 28.68774414 3.90136719 C31.42681369 4.37315933 34.16737085 4.83544716 36.90820312 5.296875 C46.04503582 6.85225244 55.06203563 8.51512889 64 11 C61.74744908 18.85607769 59.12545865 26.5555307 56.375 34.25 C55.94203613 35.46333008 55.50907227 36.67666016 55.06298828 37.92675781 C51.03931443 49.0901508 46.62923159 60.07541983 42 71 C39.79389484 68.95597603 38.35556236 67.0791165 37.01171875 64.39453125 C36.64280518 63.67112549 36.2738916 62.94771973 35.89379883 62.20239258 C35.49572021 61.41372803 35.0976416 60.62506348 34.6875 59.8125 C25.5667213 42.15239438 15.25565308 25.18447555 4.62231445 8.40161133 C4.01734131 7.44536865 3.41236816 6.48912598 2.7890625 5.50390625 C2.24975098 4.65642822 1.71043945 3.8089502 1.15478516 2.93579102 C0 1 0 1 0 0 Z " fill="#FDFEFE" transform="translate(497,248)"/>
<path d="M0 0 C3.42587881 0.56851868 4.81559021 1.519562 7 4.1875 C7.60328125 4.91066406 8.2065625 5.63382813 8.828125 6.37890625 C9.90320313 7.67634766 9.90320313 7.67634766 11 9 C11.90886385 10.05302613 12.82050665 11.10365782 13.734375 12.15234375 C19.84986563 19.18274237 25.73248704 26.35490452 31.44140625 33.71875 C34.43252227 37.5759234 37.52802657 41.3465492 40.63671875 45.109375 C42 47 42 47 42 49 C14.94 49 -12.12 49 -40 49 C-28.83586367 34.11448489 -17.41366184 19.80708722 -4.83984375 6.0859375 C-3.11087946 4.12571047 -1.53524117 2.11394578 0 0 Z " fill="#FDFEFE" transform="translate(394,164)"/>
<path d="M0 0 C-1.68399444 4.99254822 -4.52549329 9.11617821 -7.375 13.5 C-15.2122044 25.74325984 -22.40348585 38.32750882 -29.31640625 51.11328125 C-29.85974609 52.11770264 -30.40308594 53.12212402 -30.96289062 54.15698242 C-32.00764836 56.09549277 -33.04696136 58.03695018 -34.08007812 59.98168945 C-34.54994141 60.85656006 -35.01980469 61.73143066 -35.50390625 62.6328125 C-35.91455322 63.40512207 -36.3252002 64.17743164 -36.74829102 64.97314453 C-37.97888208 66.96580437 -39.27630364 68.42628558 -41 70 C-44.91399228 62.61956564 -48.01520587 55.09321458 -50.875 47.25 C-51.30409668 46.08364014 -51.73319336 44.91728027 -52.17529297 43.71557617 C-56.10977782 32.91225271 -59.65498151 21.99873133 -63 11 C-59.5225584 9.50387768 -56.23928343 8.53866877 -52.51953125 7.8515625 C-51.44977051 7.65264404 -50.38000977 7.45372559 -49.27783203 7.2487793 C-48.13427246 7.04293213 -46.99071289 6.83708496 -45.8125 6.625 C-44.63026855 6.40948486 -43.44803711 6.19396973 -42.22998047 5.97192383 C-33.71135345 4.4393381 -25.17716731 3.01968909 -16.625 1.6875 C-14.98688354 1.43057373 -14.98688354 1.43057373 -13.31567383 1.16845703 C-12.29626709 1.0136084 -11.27686035 0.85875977 -10.2265625 0.69921875 C-9.33533691 0.56346436 -8.44411133 0.42770996 -7.52587891 0.2878418 C-4.99356669 -0.00073312 -2.5462951 -0.0512005 0 0 Z " fill="#FCFEFE" transform="translate(293,248)"/>
</svg>
